# xmcd
#
# Track frame offsets:
#	150
#	48812
#	72752
#	102787
#	139700
#	192775
#	229095
#
# Disc length: 3930 seconds
#
# Revision: 0
# Processed by: cddbd v1.4PL0 Copyright (c) Steve Scherf et al.
# Submitted via: EasyCDDAExtractor 4.6.0.1
#
DISCID=530f5807
DTITLE=Kodo - Live at Acropolis
DYEAR=1996
DGENRE=Country
TTITLE0=Zoku
TTITLE1=Michi
TTITLE2=Miyake
TTITLE3=Sankan-shion
TTITLE4=O-daiko
TTITLE5=Yatai-bayashi
TTITLE6=Akabanar
EXTD=
EXTT0=
EXTT1=
EXTT2=
EXTT3=
EXTT4=
EXTT5=
EXTT6=
PLAYORDER=
